<svg width="98" height="98" viewBox="0 0 98 98" fill="none" xmlns="http://www.w3.org/2000/svg">
<path d="M73.5 32.6666H81.6667C82.7496 32.6666 83.7883 33.0969 84.554 33.8626C85.3198 34.6284 85.75 35.667 85.75 36.75V85.75C85.75 86.8329 85.3198 87.8716 84.554 88.6373C83.7883 89.4031 82.7496 89.8333 81.6667 89.8333H16.3333C15.2504 89.8333 14.2118 89.4031 13.446 88.6373C12.6802 87.8716 12.25 86.8329 12.25 85.75V36.75C12.25 35.667 12.6802 34.6284 13.446 33.8626C14.2118 33.0969 15.2504 32.6666 16.3333 32.6666H24.5V28.5833C24.5 22.0855 27.0812 15.8538 31.6759 11.2592C36.2705 6.66456 42.5022 4.08331 49 4.08331C55.4978 4.08331 61.7295 6.66456 66.3241 11.2592C70.9188 15.8538 73.5 22.0855 73.5 28.5833V32.6666ZM65.3333 32.6666V28.5833C65.3333 24.2514 63.6125 20.097 60.5494 17.0339C57.4863 13.9708 53.3319 12.25 49 12.25C44.6681 12.25 40.5137 13.9708 37.4506 17.0339C34.3875 20.097 32.6667 24.2514 32.6667 28.5833V32.6666H65.3333ZM44.9167 57.1666V65.3333H53.0833V57.1666H44.9167ZM28.5833 57.1666V65.3333H36.75V57.1666H28.5833ZM61.25 57.1666V65.3333H69.4167V57.1666H61.25Z" fill="#52525B"/>
</svg>
