<svg width="274" height="40" viewBox="0 0 274 40" fill="none" xmlns="http://www.w3.org/2000/svg">
<path d="M49.6329 33V9.38296H52.9932L65.9905 26.8818L64.247 27.2305V9.38296H68.5582V33H65.1663L52.3592 15.3744L53.9442 15.0257V33H49.6329ZM72.7811 33V15.7548H76.9339V33H72.7811ZM72.7811 13.8211V9.38296H76.9339V13.8211H72.7811ZM89.0738 33.3804C87.362 33.3804 85.8192 32.9894 84.4455 32.2075C83.0929 31.4044 82.0257 30.3266 81.2437 28.974C80.4618 27.6003 80.0708 26.0575 80.0708 24.3457C80.0708 22.6339 80.4618 21.1017 81.2437 19.7491C82.0257 18.3965 83.0929 17.3293 84.4455 16.5473C85.8192 15.7654 87.362 15.3744 89.0738 15.3744C90.2996 15.3744 91.4408 15.5963 92.4975 16.0401C93.5542 16.4628 94.4629 17.0545 95.2238 17.8154C96.0057 18.555 96.5658 19.4427 96.9039 20.4782L93.2583 22.0633C92.9413 21.1968 92.4024 20.4993 91.6416 19.971C90.9019 19.4427 90.046 19.1785 89.0738 19.1785C88.1651 19.1785 87.3514 19.4004 86.6329 19.8442C85.9354 20.288 85.386 20.9009 84.9844 21.6828C84.5829 22.4648 84.3821 23.363 84.3821 24.3774C84.3821 25.3918 84.5829 26.29 84.9844 27.072C85.386 27.8539 85.9354 28.4668 86.6329 28.9106C87.3514 29.3544 88.1651 29.5763 89.0738 29.5763C90.0671 29.5763 90.9336 29.3121 91.6733 28.7838C92.413 28.2555 92.9413 27.5475 93.2583 26.6599L96.9039 28.3083C96.5658 29.2804 96.0163 30.1575 95.2555 30.9395C94.4946 31.7003 93.5859 32.3026 92.5292 32.7464C91.4725 33.1691 90.3207 33.3804 89.0738 33.3804ZM108.487 33.3804C106.797 33.3804 105.254 32.9894 103.859 32.2075C102.485 31.4255 101.386 30.3583 100.562 29.0057C99.759 27.6531 99.3575 26.1104 99.3575 24.3774C99.3575 22.6444 99.759 21.1017 100.562 19.7491C101.386 18.3965 102.485 17.3293 103.859 16.5473C105.233 15.7654 106.775 15.3744 108.487 15.3744C110.178 15.3744 111.71 15.7654 113.084 16.5473C114.458 17.3293 115.546 18.3965 116.349 19.7491C117.173 21.0805 117.585 22.6233 117.585 24.3774C117.585 26.1104 117.173 27.6531 116.349 29.0057C115.525 30.3583 114.426 31.4255 113.052 32.2075C111.678 32.9894 110.157 33.3804 108.487 33.3804ZM108.487 29.5763C109.417 29.5763 110.231 29.3544 110.928 28.9106C111.647 28.4668 112.207 27.8539 112.608 27.072C113.031 26.2689 113.242 25.3707 113.242 24.3774C113.242 23.363 113.031 22.4754 112.608 21.7145C112.207 20.9326 111.647 20.3197 110.928 19.8759C110.231 19.411 109.417 19.1785 108.487 19.1785C107.536 19.1785 106.701 19.411 105.983 19.8759C105.264 20.3197 104.694 20.9326 104.271 21.7145C103.87 22.4754 103.669 23.363 103.669 24.3774C103.669 25.3707 103.87 26.2689 104.271 27.072C104.694 27.8539 105.264 28.4668 105.983 28.9106C106.701 29.3544 107.536 29.5763 108.487 29.5763ZM126.718 33V9.38296H136.672C138.236 9.38296 139.567 9.6577 140.666 10.2072C141.786 10.7355 142.642 11.4963 143.234 12.4896C143.847 13.4618 144.153 14.6453 144.153 16.0401C144.153 17.1179 143.857 18.1324 143.265 19.0834C142.695 20.0133 141.776 20.7847 140.507 21.3975V19.4004C141.67 19.8442 142.589 20.3937 143.265 21.0488C143.942 21.704 144.417 22.4331 144.692 23.2362C144.967 24.0393 145.104 24.8846 145.104 25.7722C145.104 28.0336 144.354 29.8088 142.853 31.098C141.374 32.366 139.313 33 136.672 33H126.718ZM131.029 29.1959H137.116C138.236 29.1959 139.123 28.8895 139.778 28.2766C140.455 27.6426 140.793 26.8078 140.793 25.7722C140.793 24.7367 140.455 23.9019 139.778 23.2679C139.123 22.6339 138.236 22.3169 137.116 22.3169H131.029V29.1959ZM131.029 18.5445H136.894C137.781 18.5445 138.489 18.2909 139.018 17.7837C139.546 17.2553 139.81 16.579 139.81 15.7548C139.81 14.9306 139.546 14.2754 139.018 13.7894C138.489 13.3033 137.781 13.0602 136.894 13.0602H131.029V18.5445ZM153.518 33.3804C152.313 33.3804 151.267 33.1796 150.379 32.7781C149.492 32.3766 148.805 31.8059 148.319 31.0663C147.833 30.3054 147.59 29.4284 147.59 28.4351C147.59 27.4841 147.801 26.6387 148.224 25.899C148.646 25.1382 149.301 24.5042 150.189 23.997C151.077 23.4898 152.197 23.1305 153.549 22.9192L159.192 21.9998V25.1699L154.342 25.9941C153.518 26.1421 152.905 26.4062 152.503 26.7867C152.102 27.1671 151.901 27.6637 151.901 28.2766C151.901 28.8683 152.123 29.3438 152.567 29.7031C153.032 30.0413 153.602 30.2103 154.278 30.2103C155.145 30.2103 155.906 30.0307 156.561 29.6714C157.237 29.291 157.755 28.7732 158.114 28.1181C158.495 27.4629 158.685 26.7444 158.685 25.9624V21.5243C158.685 20.7847 158.389 20.1718 157.797 19.6857C157.227 19.1785 156.466 18.9249 155.515 18.9249C154.627 18.9249 153.835 19.1679 153.137 19.654C152.461 20.1189 151.964 20.7424 151.647 21.5243L148.255 19.8759C148.593 18.9671 149.122 18.1852 149.84 17.53C150.58 16.8538 151.447 16.3254 152.44 15.945C153.433 15.5646 154.511 15.3744 155.673 15.3744C157.089 15.3744 158.336 15.6386 159.414 16.1669C160.492 16.6741 161.327 17.3927 161.918 18.3226C162.531 19.2313 162.838 20.2986 162.838 21.5243V33H158.907V30.0518L159.794 29.9884C159.351 30.7281 158.822 31.3516 158.209 31.8588C157.596 32.3449 156.899 32.7253 156.117 33C155.335 33.2536 154.469 33.3804 153.518 33.3804ZM166.676 33V9.00255H170.829V33H166.676ZM184.078 33.3804C182.831 33.3804 181.679 33.1374 180.623 32.6513C179.587 32.1441 178.763 31.4255 178.15 30.4956L178.562 29.6714V33H174.663V9.00255H178.816V19.1785L178.182 18.3226C178.774 17.3927 179.577 16.6741 180.591 16.1669C181.605 15.6386 182.778 15.3744 184.11 15.3744C185.737 15.3744 187.206 15.7759 188.516 16.579C189.827 17.3821 190.862 18.4599 191.623 19.8125C192.405 21.1651 192.796 22.6867 192.796 24.3774C192.796 26.047 192.415 27.5686 191.655 28.9423C190.894 30.316 189.858 31.4044 188.548 32.2075C187.238 32.9894 185.748 33.3804 184.078 33.3804ZM183.603 29.5763C184.554 29.5763 185.399 29.3544 186.139 28.9106C186.878 28.4668 187.449 27.8539 187.851 27.072C188.273 26.29 188.485 25.3918 188.485 24.3774C188.485 23.363 188.273 22.4754 187.851 21.7145C187.449 20.9326 186.878 20.3197 186.139 19.8759C185.399 19.411 184.554 19.1785 183.603 19.1785C182.694 19.1785 181.87 19.4004 181.13 19.8442C180.411 20.288 179.841 20.9115 179.418 21.7145C179.017 22.4965 178.816 23.3841 178.816 24.3774C178.816 25.3918 179.017 26.29 179.418 27.072C179.841 27.8539 180.411 28.4668 181.13 28.9106C181.87 29.3544 182.694 29.5763 183.603 29.5763ZM204.394 33.3804C202.704 33.3804 201.161 32.9894 199.766 32.2075C198.392 31.4255 197.293 30.3583 196.469 29.0057C195.666 27.6531 195.265 26.1104 195.265 24.3774C195.265 22.6444 195.666 21.1017 196.469 19.7491C197.293 18.3965 198.392 17.3293 199.766 16.5473C201.14 15.7654 202.683 15.3744 204.394 15.3744C206.085 15.3744 207.617 15.7654 208.991 16.5473C210.365 17.3293 211.453 18.3965 212.256 19.7491C213.08 21.0805 213.492 22.6233 213.492 24.3774C213.492 26.1104 213.08 27.6531 212.256 29.0057C211.432 30.3583 210.333 31.4255 208.959 32.2075C207.586 32.9894 206.064 33.3804 204.394 33.3804ZM204.394 29.5763C205.324 29.5763 206.138 29.3544 206.835 28.9106C207.554 28.4668 208.114 27.8539 208.515 27.072C208.938 26.2689 209.149 25.3707 209.149 24.3774C209.149 23.363 208.938 22.4754 208.515 21.7145C208.114 20.9326 207.554 20.3197 206.835 19.8759C206.138 19.411 205.324 19.1785 204.394 19.1785C203.443 19.1785 202.609 19.411 201.89 19.8759C201.171 20.3197 200.601 20.9326 200.178 21.7145C199.777 22.4754 199.576 23.363 199.576 24.3774C199.576 25.3707 199.777 26.2689 200.178 27.072C200.601 27.8539 201.171 28.4668 201.89 28.9106C202.609 29.3544 203.443 29.5763 204.394 29.5763ZM216.642 33V15.7548H220.541V19.1468L220.224 18.5445C220.625 17.5089 221.281 16.727 222.189 16.1986C223.119 15.6491 224.197 15.3744 225.423 15.3744C226.691 15.3744 227.811 15.6491 228.783 16.1986C229.776 16.7481 230.548 17.5195 231.097 18.5128C231.647 19.4849 231.921 20.6156 231.921 21.9047V33H227.769V22.8875C227.769 22.1267 227.621 21.4715 227.325 20.922C227.029 20.3725 226.617 19.9499 226.089 19.654C225.581 19.337 224.979 19.1785 224.282 19.1785C223.605 19.1785 223.003 19.337 222.475 19.654C221.946 19.9499 221.534 20.3725 221.238 20.922C220.942 21.4715 220.795 22.1267 220.795 22.8875V33H216.642ZM243.295 33.1902C241.351 33.1902 239.839 32.6619 238.762 31.6052C237.705 30.5273 237.177 29.0163 237.177 27.072V19.4638H234.197V15.7548H234.514C235.359 15.7548 236.014 15.5329 236.479 15.0891C236.944 14.6453 237.177 14.0007 237.177 13.1553V11.8239H241.329V15.7548H245.292V19.4638H241.329V26.8501C241.329 27.4207 241.425 27.9068 241.615 28.3083C241.826 28.7098 242.143 29.0163 242.566 29.2276C243.01 29.439 243.57 29.5446 244.246 29.5446C244.394 29.5446 244.563 29.5341 244.753 29.5129C244.964 29.4918 245.165 29.4707 245.355 29.4495V33C245.06 33.0423 244.721 33.0845 244.341 33.1268C243.961 33.1691 243.612 33.1902 243.295 33.1902ZM248.528 33V15.7548H252.681V33H248.528ZM248.528 13.8211V9.38296H252.681V13.8211H248.528ZM256.515 33V15.7548H260.414V19.1468L260.097 18.5445C260.499 17.5089 261.154 16.727 262.063 16.1986C262.993 15.6491 264.071 15.3744 265.296 15.3744C266.564 15.3744 267.685 15.6491 268.657 16.1986C269.65 16.7481 270.421 17.5195 270.971 18.5128C271.52 19.4849 271.795 20.6156 271.795 21.9047V33H267.642V22.8875C267.642 22.1267 267.494 21.4715 267.198 20.922C266.903 20.3725 266.49 19.9499 265.962 19.654C265.455 19.337 264.853 19.1785 264.155 19.1785C263.479 19.1785 262.877 19.337 262.348 19.654C261.82 19.9499 261.408 20.3725 261.112 20.922C260.816 21.4715 260.668 22.1267 260.668 22.8875V33H256.515Z" fill="black"/>
<path d="M18.9744 30.2564L3.58974 9.40167H0V11.6239L15.5556 32.9914H18.9744V30.2564Z" fill="black"/>
<path fill-rule="evenodd" clip-rule="evenodd" d="M21.1965 32.9914H26.5954C29.2372 32.9914 31.2977 32.3574 32.7771 31.0894C34.2776 29.8002 35.0278 28.025 35.0278 25.7636C35.0278 24.876 34.8904 24.0307 34.6157 23.2276C34.341 22.4245 33.8655 21.6954 33.1892 21.0402C32.8988 20.7589 32.5635 20.497 32.1835 20.2547C32.5921 19.8947 32.9274 19.5014 33.1892 19.0748C33.7809 18.1238 34.0768 17.1093 34.0768 16.0315C34.0768 14.6367 33.7704 13.4532 33.1575 12.481C32.5657 11.4877 31.7098 10.7269 30.5897 10.1986C29.4908 9.6491 28.1593 9.37436 26.5954 9.37436H21.1965V13.0516H26.8173C27.7049 13.0516 28.4129 13.2947 28.9413 13.7808C29.4696 14.2668 29.7338 14.922 29.7338 15.7462C29.7338 16.5704 29.4696 17.2467 28.9413 17.7751C28.4129 18.2823 27.7049 18.5359 26.8173 18.5359H21.1965V22.3083H27.0392C28.1593 22.3083 29.0469 22.6253 29.7021 23.2593C30.3784 23.8933 30.7165 24.7281 30.7165 25.7636C30.7165 26.7992 30.3784 27.634 29.7021 28.268C29.0469 28.8809 28.1593 29.1873 27.0392 29.1873H21.1965V32.9914Z" fill="black"/>
<rect x="16.5812" y="9.40167" width="4.61538" height="7.00855" fill="black"/>
<rect y="25.2991" width="4.61538" height="7.69231" fill="black"/>
</svg>
